<?xml version="1.0" encoding="UTF-8"?>
<svg width="28px" height="28px" viewBox="0 0 28 28" version="1.1" xmlns="http://www.w3.org/2000/svg" xmlns:xlink="http://www.w3.org/1999/xlink">
    <!-- Generator: Sketch 55.2 (78181) - https://sketchapp.com -->
    <title>edit</title>
    <desc>Created with Sketch.</desc>
    <g id="Page-1" stroke="none" stroke-width="1" fill="none" fill-rule="evenodd">
        <g id="Open-zaak-Curaned" transform="translate(-538.000000, -608.000000)" fill="#949FB3">
            <g id="Blogs" transform="translate(525.000000, 503.000000)">
                <g id="Group-2-Copy-2" transform="translate(1.000000, 0.000000)">
                    <g id="edit" transform="translate(12.000000, 105.000000)">
                        <g id="Capa_1">
                            <path d="M26.309,1.3155 C24.554,-0.4385 21.6995,-0.4385 19.9445,1.3155 L1.9135,19.3465 C1.905,19.355 1.9,19.3655 1.8925,19.3745 C1.882,19.3865 1.873,19.3995 1.8635,19.4125 C1.837,19.4495 1.8165,19.489 1.801,19.532 C1.7965,19.545 1.79,19.5565 1.7865,19.5695 C1.785,19.5745 1.782,19.5795 1.7805,19.5845 L0.013,27.0095 C0.005,27.043 0.003,27.077 0.002,27.1105 C0.002,27.117 0,27.123 0,27.1295 C0.0005,27.1865 0.013,27.242 0.0325,27.2955 C0.037,27.308 0.042,27.319 0.0475,27.331 C0.072,27.3845 0.1025,27.436 0.1455,27.479 C0.193,27.5265 0.249,27.563 0.3095,27.588 C0.37,27.613 0.4345,27.6255 0.499,27.6255 C0.5375,27.6255 0.5765,27.621 0.6145,27.612 L8.0395,25.8445 C8.053,25.8415 8.065,25.834 8.078,25.8295 C8.095,25.824 8.111,25.8175 8.1275,25.81 C8.1635,25.7935 8.197,25.773 8.228,25.7485 C8.24,25.739 8.2525,25.732 8.264,25.7215 C8.268,25.7175 8.273,25.7155 8.277,25.7115 L26.3085,7.68 C28.0635,5.925 28.0635,3.07 26.309,1.3155 L26.309,1.3155 Z M25.602,2.0225 C26.846,3.267 26.952,5.221 25.927,6.591 L21.0335,1.6975 C22.404,0.6725 24.358,0.7785 25.602,2.0225 L25.602,2.0225 Z M23.127,9.4475 L18.177,4.4975 L18.884,3.7905 L23.834,8.7405 L23.127,9.4475 L23.127,9.4475 Z M2.4805,25.144 C2.285,24.9485 1.969,24.9485 1.7735,25.144 L1.395,25.5225 L2.672,20.1585 L4.883,19.913 L4.5985,22.474 C4.5965,22.493 4.6035,22.5105 4.6035,22.529 C4.6035,22.548 4.5965,22.565 4.5985,22.584 C4.6005,22.6005 4.609,22.614 4.6125,22.63 C4.6185,22.659 4.627,22.6855 4.6375,22.7125 C4.6505,22.745 4.666,22.7745 4.685,22.803 C4.7005,22.826 4.716,22.8465 4.735,22.8665 C4.759,22.892 4.785,22.9135 4.8135,22.9335 C4.836,22.949 4.8575,22.9635 4.8825,22.9755 C4.9155,22.991 4.95,23 4.986,23.0085 C5.005,23.013 5.0205,23.0235 5.04,23.026 C5.058,23.028 5.076,23.029 5.0945,23.029 L5.095,23.029 L5.0955,23.029 L5.096,23.029 L5.0965,23.029 C5.1145,23.029 5.133,23.028 5.151,23.026 L7.712,22.7415 L7.4665,24.9525 L2.102,26.2295 L2.4805,25.851 C2.6755,25.656 2.6755,25.3395 2.4805,25.144 L2.4805,25.144 Z M8.7555,22.4045 L19.9445,11.215 C20.14,11.0195 20.14,10.7035 19.9445,10.508 C19.749,10.3125 19.433,10.3125 19.2375,10.508 L8.0485,21.6975 L5.662,21.9625 L5.927,19.576 L17.117,8.387 C17.3125,8.1915 17.3125,7.8755 17.117,7.68 C16.9215,7.4845 16.6055,7.4845 16.41,7.68 L5.22,18.869 L3.6285,19.046 L17.47,5.2045 L22.42,10.1545 L8.5785,23.996 L8.7555,22.4045 L8.7555,22.4045 Z M24.541,8.0335 L19.591,3.0835 L20.2985,2.376 L25.2485,7.326 L24.541,8.0335 L24.541,8.0335 Z" id="Shape"></path>
                        </g>
                    </g>
                </g>
            </g>
        </g>
    </g>
</svg>